<?xml version="1.0" encoding="UTF-8" standalone="no"?><!DOCTYPE svg PUBLIC "-//W3C//DTD SVG 1.1//EN" "http://www.w3.org/Graphics/SVG/1.1/DTD/svg11.dtd"><svg width="100%" height="100%" viewBox="0 0 748 394" version="1.1" xmlns="http://www.w3.org/2000/svg" xmlns:xlink="http://www.w3.org/1999/xlink" xml:space="preserve" xmlns:serif="http://www.serif.com/" style="fill-rule:evenodd;clip-rule:evenodd;stroke-linecap:round;stroke-linejoin:round;stroke-miterlimit:1.5;"><path d="M46.262,2l1.418,347.051" style="fill:none;stroke:#000;stroke-width:4px;"/><path d="M595.735,349.051l-548.055,-0" style="fill:none;stroke:#000;stroke-width:4px;"/><path d="M49.758,164.774l457.291,-149.784c-62.491,99.932 -62.837,199.6 0.178,298.999l-457.469,-149.215Z" style="fill:#ffd1dc;stroke:#000;stroke-width:4px;"/><path d="M516.871,13.456c42.383,0.846 76.792,68.522 76.792,151.033c0,82.512 -34.409,148.813 -76.792,147.967c-42.383,-0.847 -76.792,-68.522 -76.792,-151.034c-0,-82.511 34.409,-148.812 76.792,-147.966Z" style="fill:#f3ffb8;stroke:#000;stroke-width:4px;"/><ellipse cx="506.319" cy="165.66" rx="66.24" ry="131.903" style="fill:#f5a3ff;stroke:#000;stroke-width:4px;"/><ellipse cx="490.318" cy="154.684" rx="50.239" ry="100.222" style="fill:#97cdff;stroke:#000;stroke-width:4px;"/><g><path d="M593.663,13.448l24.34,0" style="fill:none;stroke:#000;stroke-width:4px;"/><path d="M618.003,312.464l-24.34,-0" style="fill:none;stroke:#000;stroke-width:4px;"/><path d="M618.003,312.464c12.955,-97.522 13.42,-197.098 0,-298.958" style="fill:none;stroke:#000;stroke-width:4px;"/></g><g transform="matrix(0.900088,-0.0088914,0,1.00005,4.45449,0.400176)"><text x="700.862px" y="168.668px" style="font-family:'ArialMT', 'Arial', sans-serif;font-size:33.238px;">Possible</text></g><g transform="matrix(1,0,0,0.964509,0,3.68635)"><text x="469.65px" y="279.152px" style="font-family:'ArialMT', 'Arial', sans-serif;font-size:18.662px;">Plausible</text></g><g transform="matrix(1,0,0,0.964509,0,-0.204748)"><text x="448.876px" y="169.514px" style="font-family:'ArialMT', 'Arial', sans-serif;font-size:18.662px;">Probable</text></g><g transform="matrix(1,0,0,0.964509,0,0.240573)"><text x="-1.422px" y="182.062px" style="font-family:'ArialMT', 'Arial', sans-serif;font-size:18.662px;">Now</text></g><g transform="matrix(1,0,0,0.964509,0,7.36302)"><text x="59.5px" y="382.747px" style="font-family:'ArialMT', 'Arial', sans-serif;font-size:18.662px;">T<tspan x="70.207px 74.353px " y="382.747px 382.747px ">im</tspan>e</text></g><path d="M59.937,389.203l462.868,1.849" style="fill:none;stroke:#000;stroke-width:4px;"/><path d="M572.326,391.916l-49.521,10.693l0,-23.115l49.521,12.422Z" style="stroke:#000;stroke-width:4px;"/></svg>